Coordinates
version=1
nRows=19
nColumns=24
inDegrees=yes

Units are S.I. units (second, meters, Newtons, ...)
Angles are in degrees.

endheader
time	pelvis_tilt	pelvis_list	pelvis_rotation	pelvis_tx	pelvis_ty	pelvis_tz	hip_flexion_r	hip_adduction_r	hip_rotation_r	knee_angle_r	ankle_angle_r	subtalar_angle_r	mtp_angle_r	hip_flexion_l	hip_adduction_l	hip_rotation_l	knee_angle_l	ankle_angle_l	subtalar_angle_l	mtp_angle_l	lumbar_extension	lumbar_bending	lumbar_rotation
      1.52033333	     -7.53526861	      5.15883452	     -0.38066471	      0.44587148	      0.89848001	      0.28923594	     22.38293381	     -8.44826201	     -7.92471685	    -68.59598412	      4.69670614	      5.80083422	      9.98110871	     18.19549980	      9.26619941	     -0.40525352	    -21.32722027	      8.99345653	     -6.96571512	      4.25338595	      0.85349567	     -8.36364265	      3.19011384
      1.52450000	     -7.39655924	      4.98978595	     -0.21501250	      0.45085745	      0.89990467	      0.28905020	     22.79301847	     -8.27899787	     -8.02193262	    -68.02630570	      5.09491528	      5.58933498	      9.88530304	     17.40301430	      9.15955943	     -0.09390402	    -20.76325897	      8.95758097	     -6.99244103	      4.24974278	      0.68070748	     -8.15902480	      2.90074832
      1.52866667	     -7.26699078	      4.82499592	     -0.03751204	      0.45582235	      0.90128429	      0.28884582	     23.20057982	     -8.11937743	     -8.12663471	    -67.41105263	      5.47761690	      5.37200638	      9.78205174	     16.61892065	      9.05872466	      0.24947891	    -20.18748216	      8.87992290	     -7.06973928	      4.24273153	      0.51973450	     -7.97155338	      2.53930794
      1.53283333	     -7.14472219	      4.64328380	      0.15730109	      0.46073678	      0.90262249	      0.28864789	     23.59953967	     -7.93819909	     -8.24182546	    -66.74259233	      5.86686860	      5.13236219	      9.70429505	     15.86524392	      8.93188475	      0.59182768	    -19.64823237	      8.77873058	     -7.10480446	      4.23581893	      0.34471340	     -7.78579303	      2.24303151
      1.53700000	     -6.99802739	      4.48779251	      0.33724460	      0.46570887	      0.90396548	      0.28840960	     23.96152540	     -7.80298230	     -8.35983719	    -66.03098327	      6.15060823	      4.90098067	      9.57165568	     15.04920271	      8.83594521	      0.96239657	    -19.03446968	      8.69674985	     -7.25885161	      4.22390211	      0.18804053	     -7.58830575	      1.78662075
      1.54116667	     -6.86070501	      4.31212589	      0.53799330	      0.47062078	      0.90526143	      0.28817773	     24.31589174	     -7.64138041	     -8.48841861	    -65.26486661	      6.44237000	      4.63919690	      9.44430675	     14.27008909	      8.70881803	      1.32564923	    -18.46292292	      8.59407924	     -7.35849810	      4.21184689	      0.01439477	     -7.38622152	      1.42412586
      1.54533333	     -6.74522140	      4.15692211	      0.74919743	      0.47551644	      0.90647053	      0.28791466	     24.68601585	     -7.51276190	     -8.62150897	    -64.47073967	      6.74067138	      4.38034193	      9.20894556	     13.51181939	      8.60638974	      1.73105632	    -17.87816337	      8.42852262	     -7.53883861	      4.19075591	     -0.12793547	     -7.21340573	      0.95193667
      1.54950000	     -6.60221236	      3.95179489	      0.95740568	      0.48040360	      0.90770473	      0.28770643	     24.99507546	     -7.31438568	     -8.75940586	    -63.58910232	      6.95532620	      4.07716065	      9.10705133	     12.75518249	      8.42424650	      2.05081857	    -17.35679631	      8.36102987	     -7.54266208	      4.18249569	     -0.31178509	     -6.98403546	      0.71296979
      1.55366667	     -6.46124591	      3.78925165	      1.15348870	      0.48530085	      0.90887262	      0.28746638	     25.30956716	     -7.17423191	     -8.88636365	    -62.69437741	      7.11466108	      3.75162449	      8.95132874	     11.97518112	      8.29089272	      2.40849853	    -16.77602117	      8.27411533	     -7.66453899	      4.17053206	     -0.47582394	     -6.77263596	      0.27913006
      1.55783333	     -6.33498967	      3.59881862	      1.37898839	      0.49015412	      0.90998914	      0.28723421	     25.61054552	     -7.00207613	     -9.03370431	    -61.73394270	      7.29213547	      3.41659472	      8.82524235	     11.24447791	      8.11596974	      2.74883211	    -16.25129679	      8.14674881	     -7.71685094	      4.16147446	     -0.63726293	     -6.56163756	     -0.05286356
      1.56200000	     -6.20844496	      3.44253424	      1.57830813	      0.49502406	      0.91103640	      0.28700515	     25.91484234	     -6.86787772	     -9.15670468	    -60.75782571	      7.39573562	      3.05658992	      8.65369203	     10.49198274	      7.97381233	      3.09498730	    -15.68127586	      8.05685044	     -7.83308736	      4.15276418	     -0.78278573	     -6.35893329	     -0.48436018
      1.56616667	     -6.10395692	      3.25550364	      1.81219117	      0.49985695	      0.91201941	      0.28677611	     26.21058658	     -6.70427824	     -9.31029834	    -59.71658589	      7.52920526	      2.69994649	      8.53940185	      9.80619321	      7.78476209	      3.40546172	    -15.18753648	      7.91406828	     -7.83528630	      4.14761952	     -0.92021452	     -6.14653823	     -0.77392914
      1.57033333	     -5.97752370	      3.11249598	      2.00629955	      0.50471033	      0.91296607	      0.28656455	     26.48942966	     -6.57927610	     -9.41496595	    -58.66120246	      7.54749882	      2.28783394	      8.34865202	      9.05846626	      7.64029895	      3.73398746	    -14.61536252	      7.84551419	     -7.95497307	      4.14366441	     -1.06285150	     -5.95729773	     -1.23729757
      1.57450000	     -5.89416037	      2.97414156	      2.23791701	      0.50952765	      0.91379454	      0.28631518	     26.79440298	     -6.47626149	     -9.55185777	    -57.57385371	      7.63565515	      1.91673965	      7.93795656	      8.37897612	      7.50082227	      4.10048685	    -14.07740027	      7.65873278	     -8.10079162	      4.14147392	     -1.16471972	     -5.79785129	     -1.74159579
      1.57866667	     -5.79288134	      2.82503999	      2.44588987	      0.51435579	      0.91460743	      0.28613350	     27.06290698	     -6.34148756	     -9.66021612	    -56.43073407	      7.64298734	      1.48521654	      7.49507614	      7.69136045	      7.32884417	      4.38096742	    -13.56090109	      7.55497540	     -8.12596666	      4.15144089	     -1.28531001	     -5.61611519	     -2.11355885
      1.58283333	     -5.69314648	      2.65768018	      2.64859662	      0.51918563	      0.91537499	      0.28597634	     27.30930105	     -6.18049393	     -9.76364705	    -55.22861020	      7.61636604	      1.09017649	      7.38373206	      7.02972829	      7.12294032	      4.59392957	    -13.09218732	      7.49355761	     -8.03761717	      4.15630958	     -1.40249821	     -5.41484440	     -2.29266715
      1.58700000	     -5.59962346	      2.51822842	      2.84816429	      0.52400712	      0.91606824	      0.28582715	     27.55643921	     -6.04772738	     -9.85207873	    -54.00914399	      7.56241557	      0.63306232	      7.26160355	      6.36419642	      6.94340749	      4.81885479	    -12.59550543	      7.40363649	     -7.99499360	      4.16334088	     -1.51519169	     -5.24173338	     -2.60962962
      1.59116667	     -5.50995502	      2.40496238	      3.03276725	      0.52884124	      0.91668376	      0.28569021	     27.80245560	     -5.93957837	     -9.91667439	    -52.77397976	      7.47112469	      0.17685404	      7.09043888	      5.69177423	      6.78961045	      5.05284259	    -12.08148467	      7.35575055	     -8.00474856	      4.17773380	     -1.61179112	     -5.09549300	     -3.01138015
      1.59533333	     -5.44592811	      2.27784265	      3.23752867	      0.53365766	      0.91722589	      0.28555949	     28.04779762	     -5.81942784	     -9.99468672	    -51.48519327	      7.41287010	     -0.23142056	      6.95984986	      5.07418986	      6.61145398	      5.25784711	    -11.61173439	      7.22258949	     -7.93932790	      4.19007327	     -1.69061378	     -4.94387358	     -3.30182354
